<svg id="Layer_1" data-name="Layer 1" xmlns="http://www.w3.org/2000/svg" viewBox="0 0 396.26 136.29"><defs><style>.cls-1,.cls-10,.cls-11,.cls-12,.cls-13,.cls-16,.cls-17,.cls-18,.cls-19,.cls-20,.cls-22,.cls-23,.cls-24,.cls-25,.cls-26,.cls-27,.cls-28,.cls-33,.cls-34,.cls-35,.cls-39,.cls-4,.cls-43,.cls-45,.cls-5,.cls-6,.cls-7{fill:none;}.cls-1,.cls-10,.cls-11,.cls-12,.cls-13,.cls-14,.cls-15,.cls-16,.cls-17,.cls-18,.cls-19,.cls-20,.cls-21,.cls-22,.cls-23,.cls-24,.cls-25,.cls-26,.cls-27,.cls-28,.cls-29,.cls-30,.cls-31,.cls-32,.cls-33,.cls-34,.cls-35,.cls-38,.cls-39,.cls-4,.cls-40,.cls-42,.cls-43,.cls-44,.cls-45,.cls-46,.cls-5,.cls-6,.cls-7,.cls-9{stroke:#231f20;}.cls-1,.cls-10,.cls-11,.cls-12,.cls-13,.cls-14,.cls-15,.cls-16,.cls-17,.cls-18,.cls-19,.cls-2,.cls-20,.cls-21,.cls-22,.cls-23,.cls-28,.cls-29,.cls-3,.cls-30,.cls-31,.cls-32,.cls-33,.cls-34,.cls-35,.cls-38,.cls-39,.cls-4,.cls-43,.cls-45,.cls-46,.cls-7{stroke-linecap:round;}.cls-1,.cls-10,.cls-11,.cls-13,.cls-14,.cls-15,.cls-16,.cls-17,.cls-18,.cls-19,.cls-2,.cls-23,.cls-28,.cls-29,.cls-3,.cls-30,.cls-31,.cls-36,.cls-38,.cls-39,.cls-4,.cls-43,.cls-45,.cls-7{stroke-linejoin:round;}.cls-1{stroke-width:3.01px;}.cls-14,.cls-15,.cls-2,.cls-21,.cls-29,.cls-3,.cls-30,.cls-31,.cls-32,.cls-36,.cls-37,.cls-38,.cls-40,.cls-41,.cls-42,.cls-46,.cls-9{fill:#fff;}.cls-2,.cls-41{stroke:#fff;}.cls-2{stroke-width:3.29px;}.cls-3,.cls-36{stroke:#000;}.cls-3{stroke-width:2.35px;}.cls-14,.cls-32,.cls-4,.cls-6{stroke-width:2.91px;}.cls-12,.cls-20,.cls-21,.cls-22,.cls-24,.cls-25,.cls-26,.cls-27,.cls-32,.cls-33,.cls-34,.cls-35,.cls-40,.cls-41,.cls-42,.cls-44,.cls-46,.cls-5,.cls-6,.cls-9{stroke-miterlimit:10;}.cls-5{stroke-width:3.39px;}.cls-7{stroke-width:4.2px;}.cls-44,.cls-8{fill:#231f20;}.cls-9{stroke-width:2.55px;}.cls-10,.cls-29{stroke-width:4.07px;}.cls-11{stroke-width:3.73px;}.cls-12,.cls-43{stroke-width:2.26px;}.cls-13{stroke-width:1.29px;}.cls-15{stroke-width:3.55px;}.cls-16{stroke-width:0.32px;}.cls-17{stroke-width:1.91px;}.cls-18{stroke-width:2.59px;}.cls-19,.cls-38{stroke-width:3.88px;}.cls-20{stroke-width:2.3px;}.cls-21,.cls-22{stroke-width:2.58px;}.cls-23{stroke-width:4.52px;}.cls-24{stroke-width:1.73px;}.cls-25,.cls-33,.cls-40{stroke-width:1.94px;}.cls-26{stroke-width:1.48px;}.cls-27{stroke-width:2.45px;}.cls-28{stroke-width:2.15px;}.cls-30{stroke-width:3.23px;}.cls-31{stroke-width:2.88px;}.cls-34,.cls-45{stroke-width:1.61px;}.cls-35{stroke-width:1.96px;}.cls-36{stroke-width:3px;}.cls-39{stroke-width:12.59px;}.cls-41{stroke-width:1.97px;}.cls-42{stroke-width:2.26px;}.cls-44{stroke-width:0.32px;}.cls-46{stroke-width:3.27px;}</style></defs><title>stick_figure_team</title><path class="cls-1" d="M171.76,116.47c-3.95,2.07-34.86.34-37.8-.9,3.71-2.25.47-18.22,1.45-24.23.18-1.12,1-4.71,1.82-5.81,5.33-7.43,12.78-11.09,22.2-7.4,3.63,1.42,9.54,6.61,9.77,13.15C170.07,116.21,171,114.2,171.76,116.47Zm-9.25-22.9c.25-3.77-1.74-6.59-4.25-8.9-4.41-4-8.2-3.77-12.46.45-.48.48-1,1-1.43,1.45-3.18,3.48-3.58,10.59-.52,13.85s7,4.7,12.2,3C160.4,101.93,162.52,98.58,162.52,93.57Z" transform="translate(-61.79 -55.6)"/><ellipse class="cls-2" cx="90.57" cy="38.53" rx="12.54" ry="14.43"/><ellipse class="cls-3" cx="145.7" cy="31.19" rx="14.5" ry="15.64"/><rect class="cls-4" x="358.31" y="124.32" width="7.62" height="10.52" rx="3.37" ry="3.37"/><path class="cls-5" d="M407.06,123.78c-4.5,1.38-5.34,1.15-9.1-2.3-.71.49-.35,1.23-.4,1.84-.06.85.09,1.81-.92,2.17a2.28,2.28,0,0,1-2.76-.73,20.73,20.73,0,0,1-1.49-2.36c-.42-.74-.68-1.77-1.49-2-4-1.14-4.2-4.26-4-7.52.12-2-.58-2.63-2.59-2.64s-2.8.63-2.58,2.64a17.74,17.74,0,0,1,0,3.32c-.13,1.61-.6,3-2.48,3.39a4.42,4.42,0,0,0-3.05,2.85,14.88,14.88,0,0,1-1.31,2.48c-.7,1-1.82.82-2.8.6s-.88-1-.66-1.84a3.32,3.32,0,0,0-.6-2.62c-2.15,3.22-5.13,4.2-8.43,2.81,4.17-2.54,4.45-6,2.29-9.69-1.44-2.43-2.31-5,.67-7.23a2.57,2.57,0,0,0,.7-3.23c-1.19-3-1.66-5.85.85-8.52,1-1.09.61-2.57.3-3.91s-.53-2.67.36-3.92c6-8.37,14.39-12.49,25-8.33,4.09,1.6,6.21,5.43,8.82,8.6.83,1,.4,2.8,0,4.22a3.59,3.59,0,0,0,.86,4c1.7,1.6,1.77,3.56,1.05,5.65-.8,2.33-1.14,4.34,1.12,6.41,1.89,1.73.85,4.14-.32,6.11a7,7,0,0,0-1.28,4.78C403.17,121.28,404.16,123.13,407.06,123.78ZM396,96.43c.28-4.24-2-7.42-4.79-10-5-4.54-9.23-4.24-14,.51-.54.54-1.1,1.07-1.61,1.64-3.58,3.92-4,11.92-.59,15.6s7.93,5.29,13.74,3.34C393.64,105.84,396,102.08,396,96.43Z" transform="translate(-61.79 -55.6)"/><circle class="cls-6" cx="264.03" cy="40.94" r="15.33"/><path class="cls-7" d="M328.41,122.3s19,9,21.32,21.62" transform="translate(-61.79 -55.6)"/><path class="cls-8" d="M319.08,96.56a4.66,4.66,0,0,1,1.64,1.21c.25.35.16.69.09,1.1a1.85,1.85,0,0,1-.14.77q-.34.25-.07.32l.62.07a.59.59,0,0,1,0-.75l-.88.37c-.23,0-.27.34-.41.48a1.74,1.74,0,0,1-.43.28l.94-.25s-.12-1,.21-1.12c.49-.12.78.59.67.95s-.31.43-.53.64l.27-.11-.24,0q.18,0,.09-.1a1.13,1.13,0,0,1-.07-.25,1.79,1.79,0,0,1,.25-.76,4.26,4.26,0,0,0,.88-1.93c0-.8-.8-1.27-1.39-1.68l-1.49.91a2.71,2.71,0,0,1,1.43,1.09c.38.47,1,.85,1,1.55l1.87-.37a4.34,4.34,0,0,0-.61-1.67L321,98a3.76,3.76,0,0,1,.33.65c.33.57,1.62-.06,1.8-.48.11-.25,0-.4-.16-.57-.44-.48-2.23.21-1.74.73q.13.09,0,.07l1.8-.48c-.12-.21-.16-.48-.33-.65-.43-.42-2.22.12-1.74.73a4.17,4.17,0,0,1,.48,1.44c.16.63,1.82.19,1.87-.37.08-.82-.37-1.24-.88-1.81a4.07,4.07,0,0,0-1.9-1.5c-.45-.15-2.32.34-1.49.91.66.45,1.2.89.81,1.71a8.68,8.68,0,0,0-.92,1.65c-.29,1.34.91,1.67,2,1.5a2.72,2.72,0,0,0,2.34-2.22c0-1.19-2-1.59-2.85-1.36-1.14.28-2.47,1.52-1.77,2.76.6,1.06,2.1.28,2.76-.28,1-.83.64-2-.72-1.86-1,.13-2.29,1.49-1.08,2.3s2.93-.81,3.1-1.91c.1-.64.23-1.47-.26-2a6.83,6.83,0,0,0-1.87-1.34c-.55-.27-2.26.52-1.49.91Z" transform="translate(-61.79 -55.6)"/><path class="cls-8" d="M330.77,95.84a4.78,4.78,0,0,1,1.67,1.3c.2.29.1,2.24-.23,2.26l.62.07a.62.62,0,0,1,0-.8l-.88.37.25,0-.62-.07c.54.19-.1.69-.32.8l.94-.12c-.4-.05-.34-1.12.1-1.18s.78.57.68.93-.26.72-.5.54.11-1,.27-1.23a4.3,4.3,0,0,0,.87-1.79c.06-.8-.69-1.32-1.26-1.73l-1.61.82a2.81,2.81,0,0,1,1.45,1.17c.39.51,1,.91.95,1.63l1.87-.37a4.46,4.46,0,0,0-.59-1.74l-1.74.73a3.65,3.65,0,0,1,.26.56c.29.54,1.57.27,1.81-.23a.53.53,0,0,0-.09-.72c-.43-.49-2.22.19-1.74.73q.1.17.09-.05l1.81-.23a3.58,3.58,0,0,0-.39-.79c-.42-.44-2.2.11-1.74.73a4.34,4.34,0,0,1,.45,1.51c.14.64,1.8.18,1.87-.37.11-.84-.35-1.29-.86-1.89a4.2,4.2,0,0,0-1.92-1.6,1.53,1.53,0,0,0-1.22.12c-.16.09-.71.47-.39.7.6.43,1.34.91,1,1.72-.25.58-.74,1-1,1.6a1.57,1.57,0,0,0,.11,1.49c.34.39,1.17.4,1.65.35a2.88,2.88,0,0,0,2.55-2.15c.17-1.25-1.8-1.76-2.75-1.58-1.19.22-2.6,1.41-2,2.7s2,.51,2.75-.07c.94-.73,1-2.07-.49-2a1.79,1.79,0,0,0-1.56.92,1.23,1.23,0,0,0,.31,1.43c1.21.81,3-.8,3.19-1.92.12-.67.28-1.5-.22-2a7.09,7.09,0,0,0-1.9-1.43c-.54-.29-2.26.5-1.49.91Z" transform="translate(-61.79 -55.6)"/><path class="cls-8" d="M266.75,74.16a4.89,4.89,0,0,1,2,1.55,2.6,2.6,0,0,1-.05,1.22,1.75,1.75,0,0,1-.35,1.06q.64,0,.46-.75l-.83.34c-.06,0-.26.56-.35.66a2.08,2.08,0,0,1-.51.34l.89-.24c-.3,0-.21-1.42.43-1.43a.86.86,0,0,1,.78,1.12c-.14.45-.6,1-.79.68s0-1,.2-1.34a4.71,4.71,0,0,0,1-2.11c0-.87-.88-1.39-1.51-1.82l-1.4.86a3.08,3.08,0,0,1,1.62,1.23c.44.55,1.16,1,1.08,1.77l1.76-.35a4.79,4.79,0,0,0-.67-1.85l-1.63.69a4,4,0,0,1,.37.72c.31.53,1.53-.06,1.7-.45s0-.41-.17-.6c-.42-.45-2.1.19-1.63.69q.12.06,0,.12l1.7-.45c-.13-.23-.18-.54-.37-.72-.41-.4-2.09.12-1.63.69a4.71,4.71,0,0,1,.54,1.63c.15.59,1.71.17,1.76-.35.09-.9-.41-1.36-1-2a4.48,4.48,0,0,0-2.1-1.66c-.42-.14-2.18.32-1.4.86s1.38,1,.93,2a9.51,9.51,0,0,0-1,1.81c-.31,1.41.9,1.78,2,1.61a2.86,2.86,0,0,0,2.45-2.37c0-1.25-2.05-1.68-3-1.46-1.23.29-2.59,1.66-1.83,3,.63,1.08,2.11.27,2.78-.29,1-.84.74-2.14-.7-2-1,.13-2.27,1.57-1.06,2.39s3-.92,3.17-2c.1-.7.26-1.61-.27-2.15a7.5,7.5,0,0,0-2.07-1.48c-.52-.26-2.13.49-1.4.86Z" transform="translate(-61.79 -55.6)"/><path class="cls-8" d="M275.46,74.16a4.89,4.89,0,0,1,2,1.55,2.6,2.6,0,0,1-.05,1.22,1.75,1.75,0,0,1-.35,1.06q.64,0,.46-.75l-.83.34c-.06,0-.26.56-.35.66a2.08,2.08,0,0,1-.51.34l.89-.24c-.3,0-.21-1.42.43-1.43A.86.86,0,0,1,278,78c-.14.45-.6,1-.79.68s0-1,.2-1.34a4.71,4.71,0,0,0,1-2.11c0-.87-.88-1.39-1.51-1.82l-1.4.86A3.08,3.08,0,0,1,277,75.53c.44.55,1.16,1,1.08,1.77l1.76-.35a4.79,4.79,0,0,0-.67-1.85l-1.63.69a4,4,0,0,1,.37.72c.31.53,1.53-.06,1.7-.45s0-.41-.17-.6c-.42-.45-2.1.19-1.63.69q.12.06,0,.12l1.7-.45c-.13-.23-.18-.54-.37-.72-.41-.4-2.09.12-1.63.69a4.71,4.71,0,0,1,.54,1.63c.15.59,1.71.17,1.76-.35.09-.9-.41-1.36-1-2a4.48,4.48,0,0,0-2.1-1.66c-.42-.14-2.18.32-1.4.86s1.38,1,.93,2a9.51,9.51,0,0,0-1,1.81c-.31,1.41.9,1.78,2,1.61a2.86,2.86,0,0,0,2.45-2.37c0-1.25-2.05-1.68-3-1.46-1.23.29-2.59,1.66-1.83,3,.63,1.08,2.11.27,2.78-.29,1-.84.74-2.14-.7-2-1,.13-2.27,1.57-1.06,2.39s3-.92,3.17-2c.1-.7.26-1.61-.27-2.15a7.5,7.5,0,0,0-2.07-1.48c-.52-.26-2.13.49-1.4.86Z" transform="translate(-61.79 -55.6)"/><path class="cls-9" d="M399.83,97.08a15.11,15.11,0,0,1-30.22,0c0-8.35,13.42-18.33,17-14.23C391,87.86,399.83,88.74,399.83,97.08Z" transform="translate(-61.79 -55.6)"/><path class="cls-10" d="M380.1,164.77s-3.38,16.19-1.76,22a.68.68,0,0,1-.78.85c-2.1-.37-6.33-.93-8,.24" transform="translate(-61.79 -55.6)"/><path class="cls-10" d="M392.62,164.7v23.54a.69.69,0,0,0,.87.66c2-.54,6.87-1.59,10.16.26" transform="translate(-61.79 -55.6)"/><path class="cls-11" d="M395.34,125.24s18.75,8.9,21,21.31" transform="translate(-61.79 -55.6)"/><path class="cls-8" d="M376.06,90.73c.9.27,2.4.88,2.64,1.87a6,6,0,0,1,.11,1.23c0,.29-.66,1.47-.07,1.13q.42.07.24-.2a2.21,2.21,0,0,1-.13-.53l-1,.13c.46.07-.07.93-.15,1a3.28,3.28,0,0,1-.5.46l1-.4c.3,0,0-.37,0-.43-.05-.4-.2-.59,0-1a.79.79,0,0,1,1.49.34,1.92,1.92,0,0,1-.71,1.44q.28-.11,0-.06t0,0a1.29,1.29,0,0,1-.21-.88c.08-1,1-2,.88-3.11s-1.24-1.53-2.08-1.92L376,90.89a4.31,4.31,0,0,1,2.27,1.27c.63.5,1.25.82,1.32,1.7l2.06-.55a5.71,5.71,0,0,0-1.12-2l-1.77.9c-.18-.12.31.52.43.66.41.5,1.84.06,2-.53a.55.55,0,0,0-.27-.67c-.58-.44-2.48.38-1.91.81.26.2.12.12.12.12l2-.53a4.13,4.13,0,0,0-.7-.86c-.47-.32-2.35.39-1.77.9a5.38,5.38,0,0,1,1,1.75c.31.7,2.11.2,2.06-.55-.08-1.15-1-1.54-1.79-2.21a4.51,4.51,0,0,0-2.59-1.33c-.4-.06-2.39.63-1.45,1.06s1.82.82,1.55,2c-.19.83-.84,1.66-.83,2.52,0,1.78,1.71,1.83,3,1.36,1.14-.4,2.5-1.91,2.06-3.23s-3.18-1.31-4.18-.79c-1.22.64-2.22,2.37-1.09,3.55s2.71-.05,3.35-1c1-1.41-.29-2.38-1.7-1.9a1.57,1.57,0,0,0-1.21,1.29,1.42,1.42,0,0,0,1.06,1.55c1.79.35,3.09-1.6,2.95-3.14-.09-.92-.05-1.66-.89-2.22a9.18,9.18,0,0,0-2.62-1.25c-.66-.2-2.41.78-1.26,1.12Z" transform="translate(-61.79 -55.6)"/><path class="cls-8" d="M386.4,89.86a6.58,6.58,0,0,1,1.65.76,1.68,1.68,0,0,1,1,1.51,4.35,4.35,0,0,1,0,1.14,2.37,2.37,0,0,1-.29.85l.67,0q-.05-.72-.65-.32a.64.64,0,0,0-.71.55,3.18,3.18,0,0,1-.58.56l1-.4c.1,0-.15-1.14-.08-1.3a.79.79,0,0,1,1.53.23,1.94,1.94,0,0,1-.7,1.45q.28-.1,0,0t0,0a1.28,1.28,0,0,1-.21-.88c.07-1,1-2,.86-3.11s-1.25-1.53-2.09-1.9L386.38,90a4.31,4.31,0,0,1,2.28,1.25c.63.49,1.26.81,1.33,1.69l2.06-.55a5.72,5.72,0,0,0-1.13-2l-1.77.9c-.18-.12.32.52.44.66.42.49,1.84.06,2-.53a.55.55,0,0,0-.27-.67c-.58-.44-2.48.38-1.91.81.26.19.12.12.12.12l2-.53a4.15,4.15,0,0,0-.71-.85c-.47-.32-2.35.4-1.77.9A5.37,5.37,0,0,1,390,93c.32.7,2.12.21,2.06-.55-.09-1.15-1-1.53-1.81-2.2a4.51,4.51,0,0,0-2.6-1.31,1.8,1.8,0,0,0-1.36.32c-.22.19-.5.55-.09.74.95.43,1.83.81,1.57,2-.19.84-.82,1.66-.81,2.52,0,1.79,1.72,1.82,3,1.35,1.14-.41,2.49-1.92,2-3.24s-3.36-1.28-4.35-.67-2.06,2.42-.84,3.5,2.74-.16,3.36-1.13c.93-1.46-.6-2.26-1.89-1.76s-1.62,2.39-.14,2.8c1.81.5,3.19-1.59,3-3.12-.09-.92-.05-1.66-.9-2.22a9.16,9.16,0,0,0-2.63-1.23c-.66-.19-2.42.79-1.26,1.12Z" transform="translate(-61.79 -55.6)"/><path class="cls-7" d="M328.82,112.46s2.1.27-.77,18.28a120.52,120.52,0,0,0-1.23,20.19s-11.06,22.66-5.6,35.52l-12.91,1.05" transform="translate(-61.79 -55.6)"/><path class="cls-7" d="M326.88,151.32s10.62,10.52,7.43,35.36c0,0,9.43-1,14,1" transform="translate(-61.79 -55.6)"/><path class="cls-12" d="M321.6,105a11.46,11.46,0,0,0,9.09,0" transform="translate(-61.79 -55.6)"/><path class="cls-13" d="M311.43,84.65" transform="translate(-61.79 -55.6)"/><path class="cls-14" d="M312.83,89.1s-27.12,5.6,12.67,4.07c0,0,11.66-.7,15.15-4.07" transform="translate(-61.79 -55.6)"/><path class="cls-15" d="M340.64,89.1H311.82s3.34-13.3,14.41-13.24C326.23,75.87,336.47,75.49,340.64,89.1Z" transform="translate(-61.79 -55.6)"/><path class="cls-16" d="M384.92,101.55" transform="translate(-61.79 -55.6)"/><path class="cls-8" d="M395.74,101.05a.85.85,0,0,0,0-1.69.85.85,0,0,0,0,1.69Z" transform="translate(-61.79 -55.6)"/><path class="cls-8" d="M395.74,96.33a.85.85,0,0,0,0-1.69.85.85,0,0,0,0,1.69Z" transform="translate(-61.79 -55.6)"/><path class="cls-8" d="M392.62,99.66a.85.85,0,0,0,0-1.69.85.85,0,0,0,0,1.69Z" transform="translate(-61.79 -55.6)"/><path class="cls-8" d="M376.63,104.36a.85.85,0,0,0,0-1.69.85.85,0,0,0,0,1.69Z" transform="translate(-61.79 -55.6)"/><path class="cls-8" d="M373.5,101.05a.85.85,0,0,0,0-1.69.85.85,0,0,0,0,1.69Z" transform="translate(-61.79 -55.6)"/><path class="cls-8" d="M378.76,101.23a.85.85,0,0,0,0-1.69.85.85,0,0,0,0,1.69Z" transform="translate(-61.79 -55.6)"/><path class="cls-17" d="M382,103.52l8.45-1.56a.69.69,0,0,1,.79.84c-.56,2.19-2.62,6.77-9.5,2A.69.69,0,0,1,382,103.52Z" transform="translate(-61.79 -55.6)"/><path class="cls-10" d="M382,124.07s-13.49,10.78-18.39,8.52S348.46,113,348.46,113" transform="translate(-61.79 -55.6)"/><circle class="cls-18" cx="211.14" cy="23.01" r="14.79"/><path class="cls-19" d="M273.16,142.4s13.9,24.72,8.72,43.23c0,0,6.12-1.9,11.13.69" transform="translate(-61.79 -55.6)"/><path class="cls-19" d="M273.16,94.39s-2.13,15.69,0,29.59c1.14,7.45-1,17.83-1,17.83s-18.45,30.66-13.67,42.47c0,0-8-1.7-12.2,1.11" transform="translate(-61.79 -55.6)"/><path class="cls-19" d="M238.39,94.39l19.05,18.05,14.28-8s14.7,10.71,14.17,28.73" transform="translate(-61.79 -55.6)"/><path class="cls-20" d="M268.13,84.73s5.2,6.35,9.6,0" transform="translate(-61.79 -55.6)"/><polygon class="cls-21" points="227.45 67.71 217.3 81.32 228.68 89.01 238.66 74.65 227.45 67.71"/><polyline class="cls-22" points="216.71 82.32 217.76 86.49 229.1 93.98 239.25 79.33 237.87 78.54"/><path class="cls-23" d="M206.49,146.92s12.17,21.64,7.64,37.86c0,0,15.21-1.67,19.59.6" transform="translate(-61.79 -55.6)"/><path class="cls-23" d="M206.37,103.56s-2.12,15.22-.23,27.38c1,6.63-.91,15.62-.91,15.62s-16.16,26.85-12,37.19c0,0-13.27-2.46-17,0" transform="translate(-61.79 -55.6)"/><path class="cls-23" d="M226.36,126.76c-5.66-16-21.12-14.44-21.12-14.44s-14.48,3.91-19.65,11.58" transform="translate(-61.79 -55.6)"/><path class="cls-12" d="M202.73,96.53c1.26,2.06,7.79,3.18,9.52.26" transform="translate(-61.79 -55.6)"/><path class="cls-24" d="M205.57,87.2a14.27,14.27,0,0,1,4.64,0" transform="translate(-61.79 -55.6)"/><path class="cls-8" d="M92.93,84a2.08,2.08,0,0,1,.73.57c.14.21.06,1-.25,1h.33a.28.28,0,0,1,0-.38l-.33.14a2.55,2.55,0,0,1-.28.35l.36,0c-.25,0-.15-.55.12-.57s.36.26.3.46-.28.37-.35.07.16-.38.26-.54a1.18,1.18,0,0,0,.28-.77c-.06-.27-.34-.45-.54-.6l-.61.31a1.84,1.84,0,0,1,.78.68c.15.17.3.31.27.55l.71-.14a1.94,1.94,0,0,0-.25-.75c-.14-.19-.8,0-.65.28,0,.08.07.17.11.25s.59.1.68-.09a.21.21,0,0,0,0-.29c-.16-.18-.84.07-.65.28q0,.07,0,0l.68-.09c-.06-.11-.1-.23-.16-.34l-.65.28a2,2,0,0,1,.2.66c.05.24.68.07.71-.14a.78.78,0,0,0-.23-.64,2.3,2.3,0,0,0-1-.84c-.14-.05-.84.14-.61.31s.58.39.44.75-.4.51-.47.81c-.15.63.48.77,1,.63s.89-.52.84-1-1-.63-1.34-.48-.95.73-.55,1.19,1,0,1.19-.3-.05-.76-.5-.65-.79.74-.27,1,1.15-.39,1.22-.85.11-.62-.14-.88a3,3,0,0,0-.76-.57c-.2-.11-.85.19-.56.34Z" transform="translate(-61.79 -55.6)"/><path class="cls-8" d="M82,84a2.08,2.08,0,0,1,.73.57c.14.21.06,1-.25,1h.33a.28.28,0,0,1,0-.38l-.33.14a2.55,2.55,0,0,1-.28.35l.36,0c-.25,0-.15-.55.12-.57s.36.26.3.46-.28.37-.35.07.16-.38.26-.54a1.18,1.18,0,0,0,.28-.77c-.06-.27-.34-.45-.54-.6L82,84.1a1.84,1.84,0,0,1,.78.68c.15.17.3.31.27.55l.71-.14a1.94,1.94,0,0,0-.25-.75c-.14-.19-.8,0-.65.28,0,.08.07.17.11.25s.59.1.68-.09a.21.21,0,0,0,0-.29c-.16-.18-.84.07-.65.28q0,.07,0,0l.68-.09c-.06-.11-.1-.23-.16-.34l-.65.28a2,2,0,0,1,.2.66c.05.24.68.07.71-.14a.78.78,0,0,0-.23-.64,2.3,2.3,0,0,0-1-.84c-.14-.05-.84.14-.61.31s.58.39.44.75-.4.51-.47.81c-.15.63.48.77,1,.63s.89-.52.84-1-1-.63-1.34-.48-.95.73-.55,1.19,1,0,1.19-.3-.05-.76-.5-.65-.79.74-.27,1,1.15-.39,1.22-.85.11-.62-.14-.88a3,3,0,0,0-.76-.57c-.2-.11-.85.19-.56.34Z" transform="translate(-61.79 -55.6)"/><path class="cls-25" d="M85.19,87.62H80.43a1.4,1.4,0,0,1-1.4-1.4l-.26-2.65a.7.7,0,0,1,.7-.77h7.13v3.41A1.4,1.4,0,0,1,85.19,87.62Z" transform="translate(-61.79 -55.6)"/><path class="cls-25" d="M95.88,87.62H91.11a1.4,1.4,0,0,1-1.4-1.4V82.8h6.54A1.11,1.11,0,0,1,97.36,84l-.08,2.27A1.4,1.4,0,0,1,95.88,87.62Z" transform="translate(-61.79 -55.6)"/><path class="cls-26" d="M86.59,83.85a9.58,9.58,0,0,1,3.12,0" transform="translate(-61.79 -55.6)"/><path class="cls-7" d="M328.31,121.78s-12.21,2.13-17.92,9.66" transform="translate(-61.79 -55.6)"/><circle class="cls-27" cx="25.96" cy="29.58" r="14.55"/><path class="cls-7" d="M88.58,110.64s23.13,11,25.92,26.29" transform="translate(-61.79 -55.6)"/><path class="cls-7" d="M87.41,100.71c-.26.46.78,1,.48,13.49-.29,12.22-1.49,24.55-1.49,24.55S73,166.31,79.59,181.95l-15.7,1.28" transform="translate(-61.79 -55.6)"/><path class="cls-7" d="M87.43,139.08s12.92,12.79,9,43c0,0,11.47-1.2,17,1.16" transform="translate(-61.79 -55.6)"/><path class="cls-28" d="M74.09,74" transform="translate(-61.79 -55.6)"/><path class="cls-7" d="M88.58,110.64s-14.84,2.59-21.79,11.74" transform="translate(-61.79 -55.6)"/><path class="cls-29" d="M382.71,114.58c-2.7,9.95-10.2,33.49-18.86,44.59,0,0,35.87,10.11,42,.87.11-.16.06-.35.08-.54.16-1.46-.9-18.72-19.52-45.68A2.13,2.13,0,0,0,382.71,114.58Z" transform="translate(-61.79 -55.6)"/><path class="cls-30" d="M76.85,81.37l-2.48,6.57c-1.81,1.39-1.94-6.51-1.89-8.79l.07-2.72A7.1,7.1,0,0,1,76,70.54l6.09-3.68a2.72,2.72,0,0,0,.65-.55L85.9,63.8c1.05-1.22,3.05-.51,4.15.66l1.94.38a19.08,19.08,0,0,0,4.52,3.53l2.44,1.37a11.25,11.25,0,0,1,5.41,7.1l1,4.19a2.72,2.72,0,0,1,0,1.22l-.3,1.42c-.27,1.25-2.51,6.4-3.79,6.4l1-4.25a2.72,2.72,0,0,1-2.58-1.88l-2.59-8a2.72,2.72,0,0,0-1.93-1.8L88,72.36a2.72,2.72,0,0,0-1.44,0L81,74.1a2.72,2.72,0,0,0-1.79,1.75l-1.39,4.22A2.72,2.72,0,0,1,76.85,81.37Z" transform="translate(-61.79 -55.6)"/><path class="cls-31" d="M261.77,75.32l-2.49,6.6c-1.82,1.4-2-6.54-1.89-8.83l.07-2.73a7.13,7.13,0,0,1,3.44-5.92L267,60.74a2.73,2.73,0,0,0,.65-.55l3.2-2.52c1.06-1.22,3.06-.51,4.17.67l1.95.38a19.17,19.17,0,0,0,4.54,3.55L284,63.64a11.3,11.3,0,0,1,5.43,7.14l1,4.21a2.73,2.73,0,0,1,0,1.22l-.3,1.43c-.27,1.26-2.52,6.43-3.81,6.43l1-4.27a2.73,2.73,0,0,1-2.6-1.89l-2.6-8a2.73,2.73,0,0,0-1.94-1.81L273,66.27a2.73,2.73,0,0,0-1.45,0L265.89,68a2.73,2.73,0,0,0-1.8,1.76L262.7,74A2.73,2.73,0,0,1,261.77,75.32Z" transform="translate(-61.79 -55.6)"/><rect class="cls-32" x="5.57" y="23.41" width="5.84" height="14.33" rx="2.59" ry="2.59"/><rect class="cls-33" x="2.1" y="27.41" width="2.92" height="5.67"/><rect class="cls-32" x="101.65" y="78.98" width="5.84" height="14.33" rx="2.59" ry="2.59" transform="translate(147.35 116.69) rotate(-180)"/><rect class="cls-34" x="107.9" y="83.41" width="2.75" height="5.34" transform="translate(156.75 116.56) rotate(180)"/><path class="cls-35" d="M85.12,94.88s9.2,1.63,9.2-4" transform="translate(-61.79 -55.6)"/><path class="cls-36" d="M222.39,89a51.56,51.56,0,0,0-1.13-5.82c-.33-1.06-1.74-.93-1.56-2s-1.76-1.82-2.78-2.31c-2.17-1-2-2.48-4.54-2.54-2.69-.07-5.4-.06-8.09,0a18.26,18.26,0,0,0-7,1.55c-1.26.56-1.87,1.44-1.6,2.54a5.07,5.07,0,0,1-.22,2.59c-.46,1.75-.67,3.53-1,5.3,0,.12,0,.25,0,.39a.85.85,0,0,1-1.17-.51,17.73,17.73,0,0,1-1.58-7.49c0-1.23-.56-2.46-.32-3.68.37-1.84.15-3.32,1.53-4.78.74-.78.91-1.81,1.78-2.53a4.58,4.58,0,0,1,3.66-1.12,1.38,1.38,0,0,0,.87-.25,6.19,6.19,0,0,1,4.15-1.45c.92,0,1.85-.22,2.92-.26l-.94.47.64,1.41c.74-.07,10.36-1.74,11-1.56-.32.08-.66,1-1.27,1.16,1.19.34,2.16.71,3.19.9,2.47.45,2.3,1.48,3.5,3.15a11.37,11.37,0,0,1,2,8.3c-.39,1.63-.33,6.74-.8,7.65C223.39,88.47,222.82,88.7,222.39,89Z" transform="translate(-61.79 -55.6)"/><path class="cls-37" d="M167,141.12a2.23,2.23,0,0,1,.31.54.83.83,0,0,0,.15.38c.19.23.8,0,.9-.24s.25-1.09-.06-1.33a.75.75,0,0,0-.81.12c-.28.27-.23.55-.2.91s1,.08.94-.25c0-.11-.08-.45,0-.54l-.81.12c.24.18.11.86,0,1.1l.9-.24c-.11-.14-.1-.35-.18-.51s-.19-.27-.28-.41-1.06.06-.87.35Z" transform="translate(-61.79 -55.6)"/><path class="cls-19" d="M145.73,152.68s-6,25.07-4.46,30.49a.64.64,0,0,1-.73.8c-2-.34-5.9-.86-7.41.22" transform="translate(-61.79 -55.6)"/><path class="cls-19" d="M154.66,155.93v28a.64.64,0,0,0,.81.62c1.84-.51,6.41-1.48,9.48.24" transform="translate(-61.79 -55.6)"/><path class="cls-7" d="M144.72,120.74s-12.58,10-17.15,7.95-7-12.76-7-12.76" transform="translate(-61.79 -55.6)"/><path class="cls-38" d="M149.38,109c-2.51,9.28-9.51,31.24-17.59,41.59,0,0,33.45,9.43,39.2.81a.63.63,0,0,0,.08-.51c-.77-3-15.28-18.94-18.2-42.6C152.68,106.66,149.81,107.41,149.38,109Z" transform="translate(-61.79 -55.6)"/><path class="cls-11" d="M114.72,141.18" transform="translate(-61.79 -55.6)"/><path class="cls-39" d="M-606.7,356" transform="translate(-61.79 -55.6)"/><path class="cls-5" d="M148.85,110.84" transform="translate(-61.79 -55.6)"/><path class="cls-5" d="M140.19,120.38" transform="translate(-61.79 -55.6)"/><path class="cls-40" d="M219.4,92.82h-7.1a2.08,2.08,0,0,1-2.08-2.08V85.64H220a1.65,1.65,0,0,1,1.65,1.71l-.12,3.38A2.09,2.09,0,0,1,219.4,92.82Z" transform="translate(-61.79 -55.6)"/><path class="cls-8" d="M215,87.57a2.47,2.47,0,0,1,.62.48c.36.37.45.46.37,1,0,.15,0,.32-.06.46,0-.19-.35.84-.14.56q.43,0-.35-.14l-.15.28a1.59,1.59,0,0,1-.38.3l.55-.15c-.08,0,0-1,.34-1.05s.46.41.41.63-.3.73-.49.66c0,0,0-.29,0-.38a1.22,1.22,0,0,1,.23-.52,3.84,3.84,0,0,0,.68-1.37c.06-.51-.36-.85-.71-1.13l-.93.48c.58.21,1.48,1.2,1.35,1.9l1.08-.21a2.91,2.91,0,0,0-.28-1.19l-1,.43a2.56,2.56,0,0,1,.13.4c.14.33.92.14,1-.13a.35.35,0,0,0,0-.46c-.22-.3-1.27.08-1,.43q.05.1,0,0l1-.13a2.05,2.05,0,0,0-.21-.53c-.23-.27-1.25,0-1,.43a2.89,2.89,0,0,1,.2,1.05c0,.38,1,.09,1.08-.21a1.23,1.23,0,0,0-.27-1c-.43-.58-.6-1-1.31-1.27-.2-.07-1.29.2-.93.48s.73.59.56,1.12-.54.82-.73,1.26c-.12.27-.22.82,0,1.06s.85.17,1.16.09a2,2,0,0,0,1.47-1.63c0-.79-1.31-1-1.86-.75s-1.52,1.17-1.07,1.93,1.36.05,1.72-.31c.56-.55.45-1.38-.47-1.19-.58.12-1.38,1.12-.62,1.55s1.8-.72,1.94-1.38c.11-.51.27-1.05-.11-1.46a3.84,3.84,0,0,0-1-.84c-.31-.17-1.31.29-.86.53Z" transform="translate(-61.79 -55.6)"/><rect class="cls-41" x="143.76" y="82.36" width="7.76" height="3.66" transform="translate(-83.81 38.81) rotate(-33.14)"/><path class="cls-42" d="M139.64,95.67c0,7.41,4.79,12.53,12.21,12.53a13.42,13.42,0,0,0,13.42-13.42c0-7.41-11.91-16.28-15.12-12.64C146.23,86.58,139.64,88.25,139.64,95.67Z" transform="translate(-61.79 -55.6)"/><path class="cls-8" d="M147.13,89.6c.68.24,2.11.8,2.39,1.55a3.55,3.55,0,0,1,0,1l.05.6q-.32.31,0,.5c.12.43.18-.62.26-.71l-.73.44c-.36.11-.47.81-.91,1.13l.93-.25c-.41,0-.26-1.15-.18-1.27a.55.55,0,0,1,.63-.31.7.7,0,0,1,.69.74c0,.27-.27,1.21-.59,1.13-.49-.13-.14-1.15,0-1.42a4.69,4.69,0,0,0,.69-2.28c-.13-.86-1.09-1.3-1.78-1.65l-1.3,1a3.89,3.89,0,0,1,2,1.23c.54.46,1.08.79,1.11,1.57l1.84-.49a5.09,5.09,0,0,0-.93-1.84l-1.71.72c.19.14.32.5.48.7.36.47,1.63,0,1.78-.48a.5.5,0,0,0-.22-.61c-.5-.42-2.22.3-1.71.72.24.2.1.09.09.11l1.78-.48c-.16-.21-.27-.54-.48-.7-.46-.34-2.25.2-1.71.72a4.84,4.84,0,0,1,.8,1.61c.26.66,1.86.17,1.84-.49,0-1-.86-1.41-1.52-2a4,4,0,0,0-2.27-1.28c-.38-.07-2.12.53-1.3,1s1.59.81,1.29,1.85c-.21.75-.8,1.44-.83,2.22-.06,1.61,1.48,1.68,2.66,1.28,1-.34,2.29-1.63,1.94-2.83s-2.71-1.25-3.61-.85c-1.17.51-2.14,2-1.23,3.14s2.3.11,2.93-.61c.92-1.06.29-2.23-1.11-1.92-1.14.25-2.1,2-.62,2.57s3-1.19,2.93-2.52c0-.78,0-1.57-.62-2.11a7.15,7.15,0,0,0-2.25-1.24,1.52,1.52,0,0,0-1.31.17c-.2.14-.6.57-.16.72Z" transform="translate(-61.79 -55.6)"/><path class="cls-8" d="M156.16,89.79c1,.39,2.34,1.06,2.31,2.22a7.4,7.4,0,0,1-.06.9c-.07.45-.41.78.15.76q0-.45-.45-.3-.55-.23-.43.34a4.43,4.43,0,0,1-.69.66l.93-.25c-.42,0-.12-1.23-.08-1.3.17-.38.17-.28.42-.27s.84.27.93.55-.33,1.37-.65,1.38c-.52,0-.21-1.13-.11-1.33a5.27,5.27,0,0,0,.89-2.25c0-.95-1-1.45-1.71-1.87l-1.3,1a3.46,3.46,0,0,1,1.76,1.22c.47.47,1.17.87,1.15,1.63l1.84-.36a5.06,5.06,0,0,0-.84-1.88l-1.71.72A4,4,0,0,1,159,92c.35.51,1.61,0,1.78-.48.1-.28,0-.43-.2-.61-.48-.44-2.21.26-1.71.72.25.23.09.07.07.12l1.78-.48c-.15-.22-.24-.55-.44-.73-.45-.37-2.22.16-1.71.72a4.88,4.88,0,0,1,.71,1.65c.2.59,1.83.21,1.84-.36,0-1-.6-1.44-1.29-2.12a4.47,4.47,0,0,0-2.35-1.5c-.41-.1-2.09.49-1.3,1s1.53.91,1.18,1.92c-.27.79-1,1.5-.94,2.37.06,1.46,1.5,1.54,2.63,1.15s2.32-1.56,2-2.76-2.7-1.36-3.61-.95c-1.14.51-2.17,1.89-1.31,3.07s2.31.14,3-.54c1-1,.37-2.22-1-1.93-1.12.23-2.18,2-.7,2.57s3-1.14,3-2.45c0-.79.11-1.55-.52-2.14a7.05,7.05,0,0,0-2.19-1.35,1.49,1.49,0,0,0-1.31.17c-.21.15-.59.55-.16.72Z" transform="translate(-61.79 -55.6)"/><rect class="cls-43" x="387.51" y="124.44" width="7.62" height="10.52" rx="3.37" ry="3.37"/><polygon class="cls-14" points="362.81 99.9 362.12 128.54 391.42 128.54 394.18 101.86 362.81 99.9"/><path class="cls-44" d="M430.4,180a2.77,2.77,0,0,1-.86-.11,1.15,1.15,0,0,1-.54-.35,1.4,1.4,0,0,1-.28-.55,3.11,3.11,0,0,1-.08-.77v-.12h1.45q0,.16,0,.24t0,.18a.48.48,0,0,0,0,.15l.06.09a.17.17,0,0,0,.09.07l.13,0a.26.26,0,0,0,.29-.21,5.75,5.75,0,0,0,0-1v-.62a.61.61,0,0,1-.3.25,1.31,1.31,0,0,1-.48.1h-.05a1.34,1.34,0,0,1-.64-.15,1.19,1.19,0,0,1-.46-.46,2.4,2.4,0,0,1-.25-.66,3.6,3.6,0,0,1-.08-.79,4.3,4.3,0,0,1,.1-1,2.1,2.1,0,0,1,.33-.74,1.38,1.38,0,0,1,.59-.47,2.27,2.27,0,0,1,.9-.16q1.95,0,1.95,2.15v2.62a4.93,4.93,0,0,1-.05.75,2.47,2.47,0,0,1-.18.63,1.41,1.41,0,0,1-.35.49,1.55,1.55,0,0,1-.56.3A2.65,2.65,0,0,1,430.4,180Zm0-3.81a.31.31,0,0,0,.2-.07.49.49,0,0,0,.13-.15v-1.14c0-.12,0-.22,0-.29a1.47,1.47,0,0,0,0-.23.32.32,0,0,0-.11-.18.3.3,0,0,0-.19-.06l-.13,0a.2.2,0,0,0-.09.1.7.7,0,0,0-.06.14,1.29,1.29,0,0,0,0,.22q0,.15,0,.28c0,.08,0,.2,0,.36s0,.34,0,.42a2,2,0,0,0,0,.29.36.36,0,0,0,.1.22A.3.3,0,0,0,430.43,176.22Z" transform="translate(-61.79 -55.6)"/><path class="cls-44" d="M433.73,179.92l1.57-5.67h-1.88v-1.17h3.39v1.12l-1.56,5.72Z" transform="translate(-61.79 -55.6)"/><path class="cls-44" d="M439.72,180a2.22,2.22,0,0,1-.89-.16,1.49,1.49,0,0,1-.61-.47,2.08,2.08,0,0,1-.34-.71,3.43,3.43,0,0,1-.11-.91v-2.52a5.11,5.11,0,0,1,0-.76,2.46,2.46,0,0,1,.18-.63,1.4,1.4,0,0,1,.34-.49,1.54,1.54,0,0,1,.56-.3,2.65,2.65,0,0,1,.81-.11,2.77,2.77,0,0,1,.86.11,1.18,1.18,0,0,1,.54.35,1.37,1.37,0,0,1,.28.55,3.08,3.08,0,0,1,.08.77v.13H440a2.34,2.34,0,0,0,0-.59.26.26,0,0,0-.26-.16.28.28,0,0,0-.31.23,6.34,6.34,0,0,0-.06,1.1v.48a.6.6,0,0,1,.31-.25,1.37,1.37,0,0,1,.49-.1h.06a1.39,1.39,0,0,1,.62.13,1.14,1.14,0,0,1,.46.43,2.12,2.12,0,0,1,.25.63,3.4,3.4,0,0,1,.08.78,5.69,5.69,0,0,1-.05.83,2.71,2.71,0,0,1-.19.68,1.59,1.59,0,0,1-.35.52,1.47,1.47,0,0,1-.55.32A2.38,2.38,0,0,1,439.72,180Zm0-1.13.13,0a.19.19,0,0,0,.09-.09.9.9,0,0,0,.06-.15,1.1,1.1,0,0,0,0-.22c0-.1,0-.19,0-.28s0-.21,0-.36,0-.22,0-.29,0-.15,0-.24a.73.73,0,0,0-.09-.34.21.21,0,0,0-.1-.1.35.35,0,0,0-.14,0,.39.39,0,0,0-.22.07.44.44,0,0,0-.15.15v1.14a2.24,2.24,0,0,0,0,.38.58.58,0,0,0,.12.27A.3.3,0,0,0,439.75,178.9Z" transform="translate(-61.79 -55.6)"/><path class="cls-44" d="M443.69,179.92v-5.39l-.86.46v-1.16l.24-.14.37-.22.34-.22.25-.18h1.23v6.84Z" transform="translate(-61.79 -55.6)"/><polyline class="cls-45" points="147.39 27.34 153.97 26.03 155.93 27.78"/><line class="cls-45" x1="143.06" y1="26.64" x2="136.44" y2="27.5"/><path class="cls-15" d="M166.56,145.75" transform="translate(-61.79 -55.6)"/><path class="cls-15" d="M136.34,145.75" transform="translate(-61.79 -55.6)"/><path class="cls-15" d="M160.45,132.9" transform="translate(-61.79 -55.6)"/><path class="cls-15" d="M142.48,132.9" transform="translate(-61.79 -55.6)"/><path class="cls-15" d="M157.32,126.61" transform="translate(-61.79 -55.6)"/><path class="cls-15" d="M143.42,127.43" transform="translate(-61.79 -55.6)"/><path class="cls-15" d="M154.66,120.38" transform="translate(-61.79 -55.6)"/><path class="cls-15" d="M145.2,121.26" transform="translate(-61.79 -55.6)"/><path class="cls-15" d="M153.46,115.92" transform="translate(-61.79 -55.6)"/><path class="cls-15" d="M146.2,117.14" transform="translate(-61.79 -55.6)"/><path class="cls-40" d="M203.48,92.82h-7.1a2.08,2.08,0,0,1-2.08-2.08l-.38-3.94a1,1,0,0,1,1-1.15h10.62v5.09A2.09,2.09,0,0,1,203.48,92.82Z" transform="translate(-61.79 -55.6)"/><path class="cls-8" d="M198.8,87.71a4.23,4.23,0,0,1,.72.45,3,3,0,0,1,.69.64,1.56,1.56,0,0,1,0,.79,1,1,0,0,1-.23.66.4.4,0,0,0,.28-.53l-.55.23c.07,0-.3.48-.43.54l.59-.08c-.32-.05-.33-.72-.12-.85.38-.23.89.35.86.64s-.26.6-.51.43-.09-.63,0-.84c.26-.4.68-.87.65-1.37s-.64-.91-1.05-1.2l-.93.57a2.76,2.76,0,0,1,1.21,1c.28.32.72.62.68,1.1l1.17-.23a3.26,3.26,0,0,0-.47-1.22l-1.09.46a2.77,2.77,0,0,1,.26.48c.22.36,1,0,1.13-.3s0-.27-.12-.39c-.28-.3-1.4.13-1.09.46q.08,0,0,.08l1.13-.3a2.25,2.25,0,0,0-.26-.48c-.27-.27-1.39.08-1.09.46a3.18,3.18,0,0,1,.39,1.07c.11.39,1.14.12,1.17-.23.05-.57-.26-.89-.63-1.27a3.72,3.72,0,0,0-1.5-1.21c-.29-.11-1.44.21-.93.57a2.5,2.5,0,0,1,.68.6c.21.33.07.54-.1.85s-.59.71-.62,1.16c-.06.9.88,1.07,1.6.91s1.57-.79,1.47-1.57-1.64-1.07-2.26-.85-1.51,1-1,1.81,1.41.23,1.89-.14c.7-.55.42-1.38-.49-1.28-.69.08-1.5,1-.7,1.55s2-.49,2.13-1.26a1.64,1.64,0,0,0-.2-1.4,5.64,5.64,0,0,0-1.43-1c-.34-.18-1.42.31-.93.57Z" transform="translate(-61.79 -55.6)"/><circle class="cls-46" cx="113.41" cy="86.8" r="4.1"/><path class="cls-23" d="M156.6,122.38s15.66,6.68,17.77,18.26" transform="translate(-61.79 -55.6)"/><path class="cls-17" d="M157,100.66,148.6,99.1a.69.69,0,0,0-.79.84c.56,2.19,2.62,6.77,9.5,2A.69.69,0,0,0,157,100.66Z" transform="translate(-61.79 -55.6)"/></svg>